/* XPM */
static const char *editor_icon[] = {
/* columns rows colors chars-per-pixel */
"46 52 177 2 ",
"   c None",
".  c #010101",
"X  c #090201",
"o  c #010902",
"O  c #010209",
"+  c #000A0D",
"@  c #011003",
"#  c #010C15",
"$  c #001017",
"%  c #02141B",
"&  c #360900",
"*  c #371403",
"=  c #3A1401",
"-  c #361902",
";  c #341108",
":  c #3A1802",
">  c #081620",
",  c #001823",
"<  c #041627",
"1  c #012C37",
"2  c #461C03",
"3  c #491C00",
"4  c #481C08",
"5  c #451806",
"6  c #571A04",
"7  c #6B1E02",
"8  c #731A01",
"9  c #4E2203",
"0  c #4E240A",
"q  c #552100",
"w  c #5A2500",
"e  c #642302",
"r  c #6C2101",
"t  c #612900",
"y  c #6D2B02",
"u  c #722304",
"i  c #742B01",
"p  c #772A06",
"a  c #7D3000",
"s  c #036700",
"d  c #096700",
"f  c #026C03",
"g  c #0A6E02",
"h  c #096B0D",
"j  c #036E0B",
"k  c #116F00",
"l  c #027402",
"z  c #0A7402",
"x  c #027B02",
"c  c #0A7A02",
"v  c #02730A",
"b  c #0A740A",
"n  c #027B0A",
"m  c #097A0A",
"M  c #107A00",
"N  c #127402",
"B  c #027613",
"V  c #007C16",
"C  c #03761D",
"Z  c #0E462B",
"A  c #05512E",
"S  c #014F37",
"D  c #004436",
"F  c #0C5B33",
"G  c #065539",
"H  c #3D413F",
"J  c #007527",
"K  c #007B24",
"L  c #06782B",
"P  c #066638",
"I  c #027633",
"U  c #00773C",
"Y  c #0A7A36",
"T  c #002B41",
"R  c #00294A",
"E  c #00324C",
"W  c #0A2E50",
"Q  c #003752",
"!  c #013C5B",
"~  c #083A58",
"^  c #3F3B49",
"/  c #403C48",
"(  c #433C40",
")  c #01405B",
"_  c #004455",
"`  c #3B4144",
"'  c #03446B",
"]  c #004D68",
"[  c #074565",
"{  c #7F747E",
"}  c #901C01",
"|  c #8F2500",
" . c #812A00",
".. c #8A2B00",
"X. c #872503",
"o. c #8B3102",
"O. c #A42D00",
"+. c #AA3402",
"@. c #A03F02",
"#. c #A93A00",
"$. c #A93209",
"%. c #B03300",
"&. c #018202",
"*. c #0A8302",
"=. c #028A03",
"-. c #028109",
";. c #7B8479",
":. c #868178",
">. c #006B9D",
",. c #0B699F",
"<. c #04729C",
"1. c #016DA2",
"2. c #0366AA",
"3. c #0576A9",
"4. c #0088B6",
"5. c #0182BE",
"6. c #0A87B8",
"7. c #0088BD",
"8. c #7E8583",
"9. c #0081C2",
"0. c #038ECA",
"q. c #0093C7",
"w. c #0096DF",
"e. c #0198DE",
"r. c #0292E2",
"t. c #0897E2",
"y. c #029AE4",
"u. c #039BFE",
"i. c #069DF6",
"p. c #00A7E7",
"a. c #00A4EE",
"s. c #03ACEB",
"d. c #01B3E7",
"f. c #02B3ED",
"g. c #00A4F5",
"h. c #09A3F3",
"j. c #02ACF5",
"k. c #0BACF4",
"l. c #02A5FE",
"z. c #0AA5FD",
"x. c #00ABFF",
"c. c #00A9FE",
"v. c #05AAFE",
"b. c #00ACFF",
"n. c #00AFFF",
"m. c #01ACFD",
"M. c #06ADFF",
"N. c #02ACFD",
"B. c #09A9FF",
"V. c #0AABFD",
"C. c #11ADFE",
"Z. c #02B3F5",
"A. c #09B4F5",
"S. c #02BAF4",
"D. c #01B1FA",
"F. c #00B1FF",
"G. c #01B2FE",
"H. c #06B2FF",
"J. c #01B5FE",
"K. c #06B6FE",
"L. c #02B2FD",
"P. c #0AB2FC",
"I. c #00B8FF",
"U. c #03B9FD",
"Y. c #02BAFC",
"T. c #0AB9FF",
"R. c #0FBCF1",
"E. c #10B0FD",
"W. c #00C2FF",
"Q. c #00CCFA",
"!. c #808080",
"~. c #9F9EA2",
"^. c #A0A0A0",
"/. c #BEDABF",
"(. c #BABAC7",
"). c #C2BEC6",
"_. c #BAC5C3",
/* pixels */
"                                      . O X X X . . .                                       ",
"                                O . . . . . O O . X O . .                                   ",
"                            . . . $ P I K &.l l c K Y P # . . .                             ",
"                        O . @ G K l l l x f &.v l x x f x J S + .                           ",
"                      O O G V c l l x n l l x l -.M l x z x z x A . X                       ",
"                  X . > I x l f x x l l n x m.v.c.m.G.z x x l b n Y % O .                   ",
"                O O Z v x l l l x l x l D.N.H.D.K.v.T.N.l x x x v v.a.E X .                 ",
"                . G l l l &.l x x c G.m.c.c.G.c.z.M.M.c.D.l l &.x G.D.B.! .                 ",
"              X ! x x x x n x x b j.G.G.N.l.V.c.m.I.f.m.C.h.K.m.M.D.g.G.N.~ X               ",
"            . 1 x x l l f x x n G.c.g.c.m.M.c.m.h.N.v.G.c.M.K.N.c.A.H.m.v.j.R X             ",
"          . + a.x l x n x l x c.J.j.I.G.D.m.G.J.D.V.J.c.j.m.m.j.z.c.H.f.M.l j.+ .           ",
"          . 9.D.J.m.l x x I.B.v.K.c.m.J.N.V.I.G.N.m.z.m.a.m.J.h.I.G.x G.&.x m.4..           ",
"        X Q N.H.M.P.&.x V.G.D.c.H.P.m.M.Z.G.c.l.B.c.x x -.b z x l c l x &.x N.N.! .         ",
"        . e.m.m.m.c.G.c.P.J.N.m.J.c.D.c.m.G.G.Z.*.b x x l x *.n x n n x x &.S.Z.e..         ",
"      . ! j.V.c.M.N.Y.H.B.M.m.m.L.c.B.M.H.c.G.Z.x l l x z l l X o x l x f L.G.N.m.) O       ",
"      X r.D.l.G.c.m.D.m.m.c.c.K.K.K.V.j.j.m.j.c.N.M.c.x l . O q 3 X x &.x N.m.J.Z.r..       ",
"      R j.c.m.Z.U.f.c.m.G.f.G.l.N.G.m.j.m.B.Z.M.c.C.N.. . y q 3 = X J.G.j.l.J.G.z.G.E X     ",
"    . 2.m.M.m.D.S.l.G.D.l.v.v.Y.N.Z.m.G.D.c.H.B.P.N.. p y y 3 - . Z.S.G.j.m.D.N.m.v.,..     ",
"    X a.l.c.G.M.V.j.c.J.K.c.v.l.m.Y.G.K.c.N.N.G.M.. y a e 6 0 * . m.c.U.c.V.N.G.c.c.a.O     ",
"    , U.m.J.j.G.G.m.G.N.G.m.G.g.c.D.c.P.N.c.I.m.. i y e 0 5 - O N.z.m.M.m.c.m.m.G.V.v., O   ",
"  . ] S.G.M.h.N.G.K.m.c.v.J.H.G.m.N.c.j.v.m.Z.. p i e t q 5 * . j.m.V.m.v.G.G.Q.J.m.H.] O   ",
"  . 1.c.m.G.N.G.m.g.m.c.Z.i.c.j.N.c.v.v.N.m.. y u e q q 4 ; O n x m.G.v.N.c.J.Z.K.N.D.>..   ",
"  . 5.J.v.V.Z.m.S.M.v.m.m.z P.z.G.G.G.m.V.. i e e 9 w 5 = . l l l l =.l m.A.m.l.c.M.D.5..   ",
". . e.V.G.j.U.N.c.c.N.V.m.&.M.c.D.m.m.P.. p w 6 3 3 9 : X x x -.j l z x l Y.G.G.c.Z.l.w.X . ",
". . B.m.c.G.c.G.G.K.G.N.x x z l D.J.N.. _.. 6 2 3 = - . x l d l l l l x l m.D.C.m.P.m.G.X . ",
". . c.G.c.V.N.G.N.B.c.N.h x l f c.c.. _.^.{ . - = * X n x &.n l x x n x l m.N.m.G.N.J.V.. . ",
". X D.M.g.Z.D.m.M.m.v.c.l f n g G.. /.).~.{ 8.. & . l l x l x f n x x x N.D.E.c.N.G.A.M.. O ",
". O m.D.m.k.v.D.v.m.m.G.l x v l J.. (.^.^.8.` / X c x x m v l x l x z G.z.P.N.V.c.H.m.N.. . ",
". . C n D.v l l N.N.G.l l x =.. . . . :.;.:.( O x l x -.l x x l f l m.u.n G.N.j.m.c.h.y.o O ",
"  . L &.B x v =.u.D.m.x x z x X +.O.... H ^ . l m c x z n s x l &.c x G.l N.G.m.Y.H.k.6.X   ",
"  X >.x l f x x x G.h.l x x z X $.} o...O O k.g v n l l n l l n l n x x l N.m.G.N.N.D.1.O   ",
"  . ' l x &.x s b x H.l x l N.X $.....X.r + x x x l l l l f l l x v l n l c.V.N.l.V.m.[ .   ",
"    , x x x l s n l =.n k m.c.. +.| .. .7 X x l l l l x x l x x l x x l j.G.I.N.m.D.m.< .   ",
"    o V c x x l l z x z l G.c.. #.....8 r O x f l &.n z n x z x l x l g m.V.Z.g.N.N.p..     ",
"    X <.l x f l m &.z x f v.X %. .o.r r . l x b l x b =.l c n x n l c G.N.Y.c.c.l.V.>.X     ",
"      Q N.D.x x c l l x O . @...e r u . . x x z x x x x x &.z j.N.j.c.D.c.j.c.B.c.m.W .     ",
"      . w.c.l l l l x l x . . X . . . c.l x n z n l s x l l G.B.g.m.c.g.m.c.c.m.R.t.X       ",
"      O ! c.n -.l l l x -.m.d.Z.I.m.V.M.b x l c N x l n l j.V.c.K.G.l.N.c.G.L.j.G._ .       ",
"        X r.D.x *.l &.l n v.H.A.S.Z.m.J.f x &.x -.n x n c.G.m.D.m.m.c.N.m.G.G.N.y.O         ",
"        . ! V.c.l x l b M.N.G.c.D.H.c.n n x c n &.l l x x l.m.G.H.m.N.m.S.c.c.J.! X         ",
"          X 7.N.x n m m.M.K.m.N.H.G.m.G.V.m x x v n l x b L.j.v.D.V.m.N.m.D.v.5.O           ",
"          O O a.m.l l H.m.M.N.m.D.m.c.N.J.&.x x &.c x x l &.v.v.A.D.B.m.G.M.p.# O           ",
"            . T M.s x J.c.H.Z.W.N.P.D.G.c.x l l n l x x x l m x l l v.P.m.J.1 .             ",
"              . ) c.G.J.N.c.D.c.m.c.G.m.D.N.l n l v x l z x n x &.l b l m.! .               ",
"                . ~ m.G.m.A.G.G.G.m.m.V.c.j.m.l l x g x n x l g =.l v x ! .                 ",
"                . . E a.c.c.C.m.c.c.N.G.m.G.N.l l f f x x x =.x l z V D X .                 ",
"                  . . % 5.m.m.m.m.v.m.N.m.v.B.N.l f l l l x l l f L % O X                   ",
"                      X . ) g.d.N.c.c.P.m.c.c.D.x l x l l x l B S . .                       ",
"                        . . + ! q.m.c.P.G.c.m.G.m.l l h v K F + X                           ",
"                            . . . $ ' 3.0.m.l.J.G.K U F $ O . .                             ",
"                                o . . . . O . . . . O O . .                                 ",
"                                      . . . . X . O .                                       "
};
